<mxfile host="65bd71144e">
    <diagram id="SmnAl8LfTtsfcpHdKrGj" name="PÃ¡gina-1">
        <mxGraphModel dx="1489" dy="461" grid="1" gridSize="10" guides="1" tooltips="1" connect="1" arrows="1" fold="1" page="1" pageScale="1" pageWidth="827" pageHeight="1169" math="0" shadow="0">
            <root>
                <mxCell id="0"/>
                <mxCell id="1" parent="0"/>
                <mxCell id="6" value="" style="edgeStyle=none;html=1;" parent="1" source="2" target="3" edge="1">
                    <mxGeometry relative="1" as="geometry"/>
                </mxCell>
                <mxCell id="2" value="INICIO" style="ellipse;whiteSpace=wrap;html=1;fontFamily=Lucida Console;fontStyle=3;fontSize=16;fillColor=#a20025;fontColor=#ffffff;strokeColor=#6F0000;" parent="1" vertex="1">
                    <mxGeometry x="150" width="120" height="80" as="geometry"/>
                </mxCell>
                <mxCell id="12" value="" style="edgeStyle=none;html=1;fontFamily=Lucida Console;fontSize=14;fontColor=#F5F5F5;exitX=0.512;exitY=0.81;exitDx=0;exitDy=0;exitPerimeter=0;" parent="1" source="3" target="4" edge="1">
                    <mxGeometry relative="1" as="geometry">
                        <Array as="points">
                            <mxPoint x="214" y="370"/>
                        </Array>
                    </mxGeometry>
                </mxCell>
                <mxCell id="3" value="Minicalculadora Guanentina&lt;br&gt;--------------------------------------&lt;br&gt;&amp;nbsp; &amp;nbsp;1-- Sumar (x + y)&lt;br&gt;2-- restar (x - y)&lt;br&gt;&amp;nbsp; &amp;nbsp; &amp;nbsp; &amp;nbsp; &amp;nbsp;3-- multiplicar (y * Y)&lt;br&gt;&amp;nbsp;4-- division (x / y)&lt;br&gt;5-- potencia (x ^ y)&lt;br&gt;6-- logaritmo (log&lt;span style=&quot;font-size: 11.6667px;&quot;&gt;&lt;sub&gt;x&lt;/sub&gt;y)&lt;br&gt;&lt;/span&gt;--------------------------------------" style="shape=document;whiteSpace=wrap;html=1;boundedLbl=1;fontFamily=Lucida Console;fontSize=14;fontStyle=3;fillColor=#6a00ff;fontColor=#ffffff;strokeColor=#3700CC;" parent="1" vertex="1">
                    <mxGeometry x="30" y="110" width="360" height="210" as="geometry"/>
                </mxCell>
                <mxCell id="8" value="" style="edgeStyle=none;html=1;" parent="1" source="4" target="5" edge="1">
                    <mxGeometry relative="1" as="geometry"/>
                </mxCell>
                <mxCell id="4" value="&lt;font style=&quot;font-size: 16px;&quot;&gt;x,y&lt;/font&gt;" style="shape=parallelogram;perimeter=parallelogramPerimeter;whiteSpace=wrap;html=1;fixedSize=1;fontSize=14;fontFamily=Lucida Console;fontStyle=3;fillColor=#0050ef;strokeColor=#001DBC;fontColor=#ffffff;" parent="1" vertex="1">
                    <mxGeometry x="150" y="370" width="120" height="60" as="geometry"/>
                </mxCell>
                <mxCell id="14" value="" style="edgeStyle=none;html=1;fontFamily=Lucida Console;fontSize=16;fontColor=#F5F5F5;" parent="1" source="5" edge="1">
                    <mxGeometry relative="1" as="geometry">
                        <mxPoint x="210" y="585" as="targetPoint"/>
                    </mxGeometry>
                </mxCell>
                <mxCell id="5" value="opc" style="shape=parallelogram;perimeter=parallelogramPerimeter;whiteSpace=wrap;html=1;fixedSize=1;fontSize=16;fontStyle=3;fontFamily=Lucida Console;fillColor=#d80073;fontColor=#ffffff;strokeColor=#A50040;" parent="1" vertex="1">
                    <mxGeometry x="150" y="470" width="120" height="60" as="geometry"/>
                </mxCell>
                <mxCell id="16" value="" style="edgeStyle=none;html=1;fontFamily=Lucida Console;fontSize=16;fontColor=#F5F5F5;exitX=0.925;exitY=0.413;exitDx=0;exitDy=0;exitPerimeter=0;" parent="1" source="71" edge="1">
                    <mxGeometry relative="1" as="geometry">
                        <mxPoint x="340" y="680" as="targetPoint"/>
                        <Array as="points">
                            <mxPoint x="340" y="615"/>
                        </Array>
                        <mxPoint x="260" y="615" as="sourcePoint"/>
                    </mxGeometry>
                </mxCell>
                <mxCell id="19" value="" style="edgeStyle=none;html=1;fontFamily=Lucida Console;fontSize=16;fontColor=#F5F5F5;exitX=0.75;exitY=0.375;exitDx=0;exitDy=0;exitPerimeter=0;" parent="1" source="71" edge="1">
                    <mxGeometry relative="1" as="geometry">
                        <mxPoint x="80" y="680" as="targetPoint"/>
                        <Array as="points">
                            <mxPoint x="80" y="615"/>
                        </Array>
                        <mxPoint x="160" y="615" as="sourcePoint"/>
                    </mxGeometry>
                </mxCell>
                <mxCell id="20" value="&lt;span style=&quot;&quot;&gt;r = x + y&lt;/span&gt;" style="rounded=1;html=1;labelBackgroundColor=none;fontFamily=Lucida Console;fontSize=16;fontColor=#ffffff;fontStyle=3;fillColor=#1ba1e2;strokeColor=default;whiteSpace=wrap;" parent="1" vertex="1">
                    <mxGeometry x="280" y="680" width="120" height="60" as="geometry"/>
                </mxCell>
                <mxCell id="23" value="" style="edgeStyle=none;html=1;fontFamily=Lucida Console;fontSize=16;fontColor=#F5F5F5;" parent="1" source="21" target="22" edge="1">
                    <mxGeometry relative="1" as="geometry">
                        <Array as="points">
                            <mxPoint x="-40" y="720"/>
                        </Array>
                    </mxGeometry>
                </mxCell>
                <mxCell id="25" value="" style="edgeStyle=none;html=1;fontFamily=Lucida Console;fontSize=16;fontColor=#F5F5F5;" parent="1" source="21" target="24" edge="1">
                    <mxGeometry relative="1" as="geometry">
                        <Array as="points">
                            <mxPoint x="200" y="720"/>
                        </Array>
                    </mxGeometry>
                </mxCell>
                <mxCell id="21" value="opc == 2" style="rhombus;whiteSpace=wrap;html=1;labelBackgroundColor=none;fontFamily=Lucida Console;fontSize=16;fontColor=#ffffff;fillColor=#0050ef;strokeColor=#001DBC;" parent="1" vertex="1">
                    <mxGeometry x="40" y="680" width="80" height="80" as="geometry"/>
                </mxCell>
                <mxCell id="27" value="" style="edgeStyle=none;html=1;fontFamily=Lucida Console;fontSize=16;fontColor=#F5F5F5;" parent="1" source="22" target="26" edge="1">
                    <mxGeometry relative="1" as="geometry">
                        <Array as="points">
                            <mxPoint x="80" y="860"/>
                        </Array>
                    </mxGeometry>
                </mxCell>
                <mxCell id="29" value="" style="edgeStyle=none;html=1;fontFamily=Lucida Console;fontSize=16;fontColor=#F5F5F5;" parent="1" source="22" target="28" edge="1">
                    <mxGeometry relative="1" as="geometry">
                        <Array as="points">
                            <mxPoint x="-160" y="860"/>
                        </Array>
                    </mxGeometry>
                </mxCell>
                <mxCell id="22" value="opc == 3" style="rhombus;whiteSpace=wrap;html=1;labelBackgroundColor=none;fontFamily=Lucida Console;fontSize=16;fontColor=#ffffff;fillColor=#FF8000;strokeColor=#FF9933;" parent="1" vertex="1">
                    <mxGeometry x="-90" y="810" width="100" height="100" as="geometry"/>
                </mxCell>
                <mxCell id="24" value="r = x -&amp;nbsp;" style="rounded=1;whiteSpace=wrap;html=1;fontSize=16;fontFamily=Lucida Console;fontColor=#ffffff;labelBackgroundColor=none;fillColor=#d80073;strokeColor=#A50040;" parent="1" vertex="1">
                    <mxGeometry x="140" y="760" width="120" height="60" as="geometry"/>
                </mxCell>
                <mxCell id="26" value="r = x * y" style="rounded=1;whiteSpace=wrap;html=1;fontSize=16;fontFamily=Lucida Console;fontColor=#ffffff;labelBackgroundColor=none;fillColor=#a20025;strokeColor=#6F0000;" parent="1" vertex="1">
                    <mxGeometry x="20" y="920" width="120" height="60" as="geometry"/>
                </mxCell>
                <mxCell id="33" value="" style="edgeStyle=none;html=1;fontFamily=Lucida Console;fontSize=16;fontColor=#F5F5F5;" parent="1" source="28" target="32" edge="1">
                    <mxGeometry relative="1" as="geometry">
                        <Array as="points">
                            <mxPoint x="-40" y="970"/>
                        </Array>
                    </mxGeometry>
                </mxCell>
                <mxCell id="35" value="" style="edgeStyle=none;html=1;fontFamily=Lucida Console;fontSize=16;fontColor=#F5F5F5;" parent="1" source="28" target="34" edge="1">
                    <mxGeometry relative="1" as="geometry">
                        <Array as="points">
                            <mxPoint x="-280" y="970"/>
                        </Array>
                    </mxGeometry>
                </mxCell>
                <mxCell id="28" value="&amp;nbsp;opc == 4" style="rhombus;whiteSpace=wrap;html=1;fontSize=16;fontFamily=Lucida Console;fontColor=#ffffff;labelBackgroundColor=none;fillColor=#60a917;strokeColor=#2D7600;" parent="1" vertex="1">
                    <mxGeometry x="-210" y="920" width="100" height="100" as="geometry"/>
                </mxCell>
                <mxCell id="32" value="r = x / y" style="rounded=1;whiteSpace=wrap;html=1;fontSize=16;fontFamily=Lucida Console;fontColor=#ffffff;labelBackgroundColor=none;fillColor=#67818C;strokeColor=#61686E;" parent="1" vertex="1">
                    <mxGeometry x="-100" y="1030" width="120" height="60" as="geometry"/>
                </mxCell>
                <mxCell id="37" value="" style="edgeStyle=none;html=1;fontFamily=Lucida Console;fontSize=16;fontColor=#F5F5F5;" parent="1" source="34" target="36" edge="1">
                    <mxGeometry relative="1" as="geometry">
                        <Array as="points">
                            <mxPoint x="-160" y="1080"/>
                        </Array>
                    </mxGeometry>
                </mxCell>
                <mxCell id="40" value="" style="edgeStyle=none;html=1;fontFamily=Lucida Console;fontSize=16;fontColor=#F5F5F5;" parent="1" source="34" target="39" edge="1">
                    <mxGeometry relative="1" as="geometry">
                        <Array as="points">
                            <mxPoint x="-400" y="1080"/>
                        </Array>
                    </mxGeometry>
                </mxCell>
                <mxCell id="34" value="&amp;nbsp;opc == 5" style="rhombus;whiteSpace=wrap;html=1;fontSize=16;fontFamily=Lucida Console;fontColor=#ffffff;labelBackgroundColor=none;fillColor=#1ba1e2;strokeColor=#006EAF;" parent="1" vertex="1">
                    <mxGeometry x="-330" y="1030" width="100" height="100" as="geometry"/>
                </mxCell>
                <mxCell id="61" value="" style="edgeStyle=none;html=1;fontFamily=Lucida Console;fontSize=14;fontColor=#F5F5F5;" parent="1" source="36" edge="1">
                    <mxGeometry relative="1" as="geometry">
                        <mxPoint x="-160" y="1440" as="targetPoint"/>
                        <Array as="points">
                            <mxPoint x="-160" y="1420"/>
                        </Array>
                    </mxGeometry>
                </mxCell>
                <mxCell id="36" value="r = x&amp;nbsp;^&amp;nbsp; y" style="rounded=1;whiteSpace=wrap;html=1;fontSize=16;fontFamily=Lucida Console;fontColor=#ffffff;labelBackgroundColor=none;fillColor=#009900;strokeColor=#80FF00;" parent="1" vertex="1">
                    <mxGeometry x="-220" y="1140" width="120" height="60" as="geometry"/>
                </mxCell>
                <mxCell id="42" value="" style="edgeStyle=none;html=1;fontFamily=Lucida Console;fontSize=16;fontColor=#F5F5F5;" parent="1" source="39" target="41" edge="1">
                    <mxGeometry relative="1" as="geometry">
                        <Array as="points">
                            <mxPoint x="-280" y="1190"/>
                        </Array>
                    </mxGeometry>
                </mxCell>
                <mxCell id="44" value="" style="edgeStyle=none;html=1;fontFamily=Lucida Console;fontSize=14;fontColor=#F5F5F5;" parent="1" source="39" target="43" edge="1">
                    <mxGeometry relative="1" as="geometry">
                        <Array as="points">
                            <mxPoint x="-520" y="1190"/>
                        </Array>
                    </mxGeometry>
                </mxCell>
                <mxCell id="39" value="&amp;nbsp;opc == 6" style="rhombus;whiteSpace=wrap;html=1;fontSize=16;fontFamily=Lucida Console;fontColor=#ffffff;labelBackgroundColor=none;fillColor=#6a00ff;strokeColor=#3700CC;" parent="1" vertex="1">
                    <mxGeometry x="-450" y="1140" width="100" height="100" as="geometry"/>
                </mxCell>
                <mxCell id="57" style="html=1;fontFamily=Lucida Console;fontSize=14;fontColor=#F5F5F5;" parent="1" source="41" edge="1">
                    <mxGeometry relative="1" as="geometry">
                        <mxPoint x="-280" y="1440" as="targetPoint"/>
                    </mxGeometry>
                </mxCell>
                <mxCell id="46" value="" style="edgeStyle=none;html=1;fontFamily=Lucida Console;fontSize=14;fontColor=#F5F5F5;" parent="1" source="43" edge="1">
                    <mxGeometry relative="1" as="geometry">
                        <mxPoint x="-40" y="1500" as="targetPoint"/>
                        <Array as="points">
                            <mxPoint x="-520" y="1440"/>
                            <mxPoint x="-40" y="1440"/>
                        </Array>
                    </mxGeometry>
                </mxCell>
                <mxCell id="43" value="r = &quot;No valido" style="rounded=1;whiteSpace=wrap;html=1;fontSize=16;fontFamily=Lucida Console;fontColor=#ffffff;labelBackgroundColor=none;fillColor=#d80073;strokeColor=#A50040;" parent="1" vertex="1">
                    <mxGeometry x="-580" y="1320" width="120" height="60" as="geometry"/>
                </mxCell>
                <mxCell id="41" value="r = Log&lt;span style=&quot;font-size: 14px;&quot;&gt;&lt;sub&gt;x&lt;/sub&gt;y&lt;/span&gt;" style="rounded=1;whiteSpace=wrap;html=1;fontSize=16;fontFamily=Lucida Console;fontColor=#ffffff;labelBackgroundColor=none;fillColor=#0050ef;strokeColor=#001DBC;" parent="1" vertex="1">
                    <mxGeometry x="-340" y="1260" width="120" height="60" as="geometry"/>
                </mxCell>
                <mxCell id="63" value="" style="endArrow=none;html=1;fontFamily=Lucida Console;fontSize=14;fontColor=#F5F5F5;entryX=0.5;entryY=1;entryDx=0;entryDy=0;" parent="1" target="20" edge="1">
                    <mxGeometry width="50" height="50" relative="1" as="geometry">
                        <mxPoint x="-66" y="1440" as="sourcePoint"/>
                        <mxPoint x="350" y="830" as="targetPoint"/>
                        <Array as="points">
                            <mxPoint x="340" y="1440"/>
                            <mxPoint x="340" y="1430"/>
                            <mxPoint x="340" y="830"/>
                        </Array>
                    </mxGeometry>
                </mxCell>
                <mxCell id="65" value="" style="endArrow=none;html=1;fontFamily=Lucida Console;fontSize=14;fontColor=#F5F5F5;entryX=0.5;entryY=1;entryDx=0;entryDy=0;" parent="1" target="24" edge="1">
                    <mxGeometry width="50" height="50" relative="1" as="geometry">
                        <mxPoint x="200" y="1441" as="sourcePoint"/>
                        <mxPoint x="200" y="890" as="targetPoint"/>
                        <Array as="points">
                            <mxPoint x="200" y="920"/>
                        </Array>
                    </mxGeometry>
                </mxCell>
                <mxCell id="66" value="" style="endArrow=none;html=1;fontFamily=Lucida Console;fontSize=14;fontColor=#F5F5F5;entryX=0.5;entryY=1;entryDx=0;entryDy=0;" parent="1" target="32" edge="1">
                    <mxGeometry width="50" height="50" relative="1" as="geometry">
                        <mxPoint x="-40" y="1450" as="sourcePoint"/>
                        <mxPoint x="10" y="1220" as="targetPoint"/>
                    </mxGeometry>
                </mxCell>
                <mxCell id="67" value="" style="endArrow=none;html=1;fontFamily=Lucida Console;fontSize=14;fontColor=#F5F5F5;entryX=0.5;entryY=1;entryDx=0;entryDy=0;" parent="1" target="26" edge="1">
                    <mxGeometry width="50" height="50" relative="1" as="geometry">
                        <mxPoint x="80" y="1440" as="sourcePoint"/>
                        <mxPoint x="10" y="990" as="targetPoint"/>
                        <Array as="points">
                            <mxPoint x="80" y="1080"/>
                        </Array>
                    </mxGeometry>
                </mxCell>
                <mxCell id="70" value="" style="edgeStyle=none;html=1;fontFamily=Lucida Console;fontSize=16;fontColor=#F5F5F5;" parent="1" target="69" edge="1">
                    <mxGeometry relative="1" as="geometry">
                        <mxPoint x="-40" y="1560" as="sourcePoint"/>
                    </mxGeometry>
                </mxCell>
                <mxCell id="68" value="&lt;font style=&quot;font-size: 16px;&quot;&gt;r&lt;/font&gt;" style="shape=document;whiteSpace=wrap;html=1;boundedLbl=1;labelBackgroundColor=none;fontFamily=Lucida Console;fontSize=14;fontColor=#ffffff;fillColor=#6a00ff;strokeColor=#3700CC;" parent="1" vertex="1">
                    <mxGeometry x="-100" y="1500" width="120" height="80" as="geometry"/>
                </mxCell>
                <mxCell id="69" value="&lt;b&gt;&lt;i&gt;FIN&lt;/i&gt;&lt;/b&gt;" style="ellipse;whiteSpace=wrap;html=1;labelBackgroundColor=none;fontFamily=Lucida Console;fontSize=16;fontColor=#ffffff;fillColor=#a20025;strokeColor=#6F0000;" parent="1" vertex="1">
                    <mxGeometry x="-100" y="1630" width="120" height="80" as="geometry"/>
                </mxCell>
                <mxCell id="71" value="opc == 1" style="rhombus;whiteSpace=wrap;html=1;labelBackgroundColor=none;fontFamily=Lucida Console;fontSize=16;fontColor=#ffffff;fillColor=#0050ef;strokeColor=#001DBC;" vertex="1" parent="1">
                    <mxGeometry x="170" y="585" width="80" height="80" as="geometry"/>
                </mxCell>
            </root>
        </mxGraphModel>
    </diagram>
</mxfile>